<svg width="57" height="57" viewBox="0 0 57 57" fill="none" xmlns="http://www.w3.org/2000/svg">
<g clip-path="url(#clip0_6_793)">
<path d="M33.2636 34.923C31.8455 35.8684 30.1983 36.3682 28.5 36.3682C26.8018 36.3682 25.1546 35.8684 23.7365 34.923L0.379518 19.3512C0.249932 19.2648 0.123686 19.1748 0 19.0821V44.5982C0 47.5237 2.37407 49.8454 5.24723 49.8454H51.7527C54.6781 49.8454 56.9999 47.4714 56.9999 44.5982V19.082C56.876 19.1749 56.7495 19.2652 56.6196 19.3517L33.2636 34.923Z" fill="#FFCE09"/>
<path d="M2.23213 16.5723L25.5891 32.1442C26.4733 32.7336 27.4866 33.0283 28.4999 33.0283C29.5133 33.0283 30.5267 32.7335 31.4109 32.1442L54.7679 16.5723C56.1656 15.641 57 14.0824 57 12.4002C57 9.50782 54.6469 7.15479 51.7546 7.15479H5.24545C2.35314 7.1549 0 9.50793 0 12.403C0 14.0824 0.834516 15.641 2.23213 16.5723Z" fill="#FFCE09"/>
</g>
<defs>
<clipPath id="clip0_6_793">
<rect width="57" height="57" fill="white"/>
</clipPath>
</defs>
</svg>
