<svg width="80" height="80" viewBox="0 0 80 80" fill="none" xmlns="http://www.w3.org/2000/svg">
<g clip-path="url(#clip0_6_801)">
<path d="M47.6562 40C47.6562 44.2285 44.2285 47.6562 40 47.6562C35.7715 47.6562 32.3438 44.2285 32.3438 40C32.3438 35.7715 35.7715 32.3438 40 32.3438C44.2285 32.3438 47.6562 35.7715 47.6562 40Z" fill="#FFCE09"/>
<path d="M57.9048 26.4537C57.5367 25.4564 56.9496 24.5537 56.1866 23.8127C55.4457 23.0498 54.5436 22.4626 53.5457 22.0946C52.7363 21.7803 51.5205 21.4061 49.2811 21.3042C46.8586 21.1937 46.1323 21.1699 39.9995 21.1699C33.8661 21.1699 33.1398 21.1931 30.7179 21.3036C28.4785 21.4061 27.2621 21.7803 26.4534 22.0946C25.4554 22.4626 24.5527 23.0498 23.8124 23.8127C23.0494 24.5537 22.4623 25.4558 22.0936 26.4537C21.7793 27.2631 21.4052 28.4795 21.3032 30.7189C21.1927 33.1407 21.1689 33.8671 21.1689 40.0005C21.1689 46.1333 21.1927 46.8596 21.3032 49.2821C21.4052 51.5215 21.7793 52.7373 22.0936 53.5466C22.4623 54.5446 23.0488 55.4467 23.8118 56.1876C24.5527 56.9506 25.4548 57.5377 26.4528 57.9058C27.2621 58.2207 28.4785 58.5948 30.7179 58.6968C33.1398 58.8073 33.8655 58.8304 39.9989 58.8304C46.1329 58.8304 46.8593 58.8073 49.2805 58.6968C51.5199 58.5948 52.7363 58.2207 53.5457 57.9058C55.5488 57.1331 57.1321 55.5498 57.9048 53.5466C58.2191 52.7373 58.5933 51.5215 58.6958 49.2821C58.8063 46.8596 58.8295 46.1333 58.8295 40.0005C58.8295 33.8671 58.8063 33.1407 58.6958 30.7189C58.5939 28.4795 58.2197 27.2631 57.9048 26.4537ZM39.9995 51.7943C33.4852 51.7943 28.2045 46.5142 28.2045 39.9999C28.2045 33.4856 33.4852 28.2054 39.9995 28.2054C46.5132 28.2054 51.7939 33.4856 51.7939 39.9999C51.7939 46.5142 46.5132 51.7943 39.9995 51.7943ZM52.2603 30.4955C50.738 30.4955 49.5039 29.2614 49.5039 27.7391C49.5039 26.2169 50.738 24.9828 52.2603 24.9828C53.7825 24.9828 55.0166 26.2169 55.0166 27.7391C55.016 29.2614 53.7825 30.4955 52.2603 30.4955Z" fill="#FFCE09"/>
<path d="M40 0C17.912 0 0 17.912 0 40C0 62.088 17.912 80 40 80C62.088 80 80 62.088 80 40C80 17.912 62.088 0 40 0ZM62.8302 49.4696C62.7191 51.9147 62.3303 53.584 61.7627 55.0452C60.5695 58.1305 58.1305 60.5695 55.0452 61.7627C53.5846 62.3303 51.9147 62.7185 49.4702 62.8302C47.0209 62.9419 46.2384 62.9688 40.0006 62.9688C33.7622 62.9688 32.9803 62.9419 30.5304 62.8302C28.0859 62.7185 26.416 62.3303 24.9554 61.7627C23.4222 61.1859 22.0343 60.282 20.8868 59.1132C19.7186 57.9663 18.8147 56.5778 18.2379 55.0452C17.6703 53.5846 17.2815 51.9147 17.1704 49.4702C17.0575 47.0203 17.0312 46.2378 17.0312 40C17.0312 33.7622 17.0575 32.9797 17.1698 30.5304C17.2809 28.0853 17.6691 26.416 18.2367 24.9548C18.8135 23.4222 19.718 22.0337 20.8868 20.8868C22.0337 19.718 23.4222 18.8141 24.9548 18.2373C26.416 17.6697 28.0853 17.2815 30.5304 17.1698C32.9797 17.0581 33.7622 17.0312 40 17.0312C46.2378 17.0312 47.0203 17.0581 49.4696 17.1704C51.9147 17.2815 53.584 17.6697 55.0452 18.2367C56.5778 18.8135 57.9663 19.718 59.1138 20.8868C60.282 22.0343 61.1865 23.4222 61.7627 24.9548C62.3309 26.416 62.7191 28.0853 62.8308 30.5304C62.9425 32.9797 62.9688 33.7622 62.9688 40C62.9688 46.2378 62.9425 47.0203 62.8302 49.4696Z" fill="#FFCE09"/>
</g>
<defs>
<clipPath id="clip0_6_801">
<rect width="80" height="80" fill="white"/>
</clipPath>
</defs>
</svg>
