<svg width="57" height="57" viewBox="0 0 57 57" fill="none" xmlns="http://www.w3.org/2000/svg">
<g clip-path="url(#clip0_6_789)">
<path d="M37.942 0H18.9765C15.6296 0.00379528 12.9174 2.716 12.9141 6.06296V50.9374C12.9174 54.2843 15.6296 56.9965 18.9765 56.9998H37.942C41.289 56.9965 44.0012 54.2843 44.005 50.9374V6.06296C44.0012 2.716 41.289 0.00379528 37.942 0ZM28.4595 51.8183C27.0282 51.8183 25.8683 50.6584 25.8683 49.2271C25.8683 47.7963 27.0282 46.6364 28.4595 46.6364C29.8903 46.6364 31.0503 47.7963 31.0503 49.2271C31.0503 50.6584 29.8903 51.8183 28.4595 51.8183ZM32.3459 7.77273H24.5732C23.8577 7.77273 23.2775 7.19252 23.2775 6.47711C23.2775 5.7617 23.8577 5.18198 24.5732 5.18198H32.3459C33.0613 5.18198 33.641 5.7617 33.641 6.47711C33.641 7.19252 33.0613 7.77273 32.3459 7.77273Z" fill="#FFCE09"/>
</g>
<defs>
<clipPath id="clip0_6_789">
<rect width="57" height="57" fill="white"/>
</clipPath>
</defs>
</svg>
