<svg width="57" height="57" viewBox="0 0 57 57" fill="none" xmlns="http://www.w3.org/2000/svg">
<g clip-path="url(#clip0_6_816)">
<path d="M17.4582 17.8814C17.6561 18.792 17.9597 19.3814 18.3138 19.7487C19.1561 25.6124 24.4193 30.6094 28.6466 30.4005C34.0242 30.1366 37.8358 24.3411 38.6913 19.7487C39.0454 19.3836 39.3863 18.6028 39.5909 17.6857C39.8196 16.6322 40.066 15.0442 39.4325 14.204C39.3951 14.16 39.1532 13.9379 39.1114 13.9005C39.7163 11.7187 41.0447 7.82572 37.7368 4.32645C35.9443 2.43056 33.4545 1.47821 31.2045 0.726013C24.5623 -1.4932 19.8731 1.61898 17.7089 6.7942C17.5528 7.1615 16.5432 9.48628 17.7661 13.9005C17.6473 13.9797 17.5396 14.0809 17.4494 14.204C16.8138 15.042 17.2273 16.8279 17.4582 17.8814Z" fill="#FFCE09"/>
<path d="M51.8104 50.1294C51.6256 46.0934 51.3969 39.6976 47.8713 34.4651C47.8713 34.4651 46.8661 33.0949 44.482 32.1844C44.482 32.1844 39.3045 30.6074 36.9204 28.9028L35.8317 29.6484L35.9526 36.7261L29.416 54.1763C29.273 54.559 28.9079 54.8119 28.501 54.8119C28.0941 54.8119 27.729 54.559 27.5861 54.1763L21.0516 36.7261C21.0516 36.7261 21.1726 29.6704 21.1704 29.6484C21.1858 29.7078 20.0795 28.9028 20.0795 28.9028C17.6997 30.6074 12.5201 32.1844 12.5201 32.1844C10.1359 33.0949 9.13078 34.4651 9.13078 34.4651C5.60732 39.6976 5.37418 46.0934 5.18943 50.1294C5.06186 52.9182 5.64691 53.9585 6.38151 54.2555C15.5003 57.9153 41.4951 57.9153 50.6161 54.2555C51.3551 53.9607 51.9358 52.9182 51.8104 50.1294Z" fill="#FFCE09"/>
<path d="M28.734 32.655L28.4393 32.6616C27.4892 32.6616 26.5302 32.4769 25.5889 32.1514L28.1798 36.1169L25.855 38.3603L28.248 52.8918C28.2678 53.0172 28.3755 53.1074 28.5031 53.1074C28.6285 53.1074 28.7362 53.0172 28.7582 52.8918L31.1512 38.3603L28.8242 36.1169L31.3777 32.2108C30.5441 32.4549 29.6622 32.6176 28.734 32.655Z" fill="#FFCE09"/>
</g>
<defs>
<clipPath id="clip0_6_816">
<rect width="57" height="57" fill="white"/>
</clipPath>
</defs>
</svg>
