<svg width="80" height="80" viewBox="0 0 80 80" fill="none" xmlns="http://www.w3.org/2000/svg">
<g clip-path="url(#clip0_6_806)">
<path d="M40 0C17.9094 0 0 17.9094 0 40C0 62.0906 17.9094 80 40 80C62.0906 80 80 62.0906 80 40C80 17.9094 62.0906 0 40 0Z" fill="#FFCE09"/>
<path d="M44.3756 36.3803L61.4991 16.4756H57.4414L42.573 33.7586L30.6977 16.4756H17.001L34.9587 42.6105L17.001 63.4836H21.0589L36.7603 45.2322L49.3015 63.4836H62.9982L44.3745 36.3803H44.3756ZM22.521 19.5304H28.7538L57.4432 60.5678H51.2105L22.521 19.5304Z" fill="#404040"/>
</g>
<defs>
<clipPath id="clip0_6_806">
<rect width="80" height="80" fill="white"/>
</clipPath>
</defs>
</svg>
