<svg width="80" height="80" viewBox="0 0 80 80" fill="none" xmlns="http://www.w3.org/2000/svg">
<g clip-path="url(#clip0_6_811)">
<path d="M35.0176 47.4937L48.0291 39.9998L35.0176 32.5059V47.4937Z" fill="#FFCE09"/>
<path d="M40 0C17.912 0 0 17.912 0 40C0 62.088 17.912 80 40 80C62.088 80 80 62.088 80 40C80 17.912 62.088 0 40 0ZM64.9939 40.0409C64.9939 40.0409 64.9939 48.1531 63.9648 52.0648C63.3881 54.2059 61.6998 55.8942 59.5587 56.4703C55.647 57.5 40 57.5 40 57.5C40 57.5 24.3939 57.5 20.4413 56.4294C18.3002 55.8533 16.6119 54.1644 16.0352 52.0233C15.0055 48.1531 15.0055 40 15.0055 40C15.0055 40 15.0055 31.8884 16.0352 27.9767C16.6113 25.8356 18.3411 24.1058 20.4413 23.5297C24.353 22.5 40 22.5 40 22.5C40 22.5 55.647 22.5 59.5587 23.5706C61.6998 24.1467 63.3881 25.8356 63.9648 27.9767C65.0354 31.8884 64.9939 40.0409 64.9939 40.0409Z" fill="#FFCE09"/>
</g>
<defs>
<clipPath id="clip0_6_811">
<rect width="80" height="80" fill="white"/>
</clipPath>
</defs>
</svg>
